<svg xmlns="http://www.w3.org/2000/svg" xmlns:xlink="http://www.w3.org/1999/xlink" width="1280" height="960"><title>Landscape 7</title><defs><linearGradient id="linearGradient4703"><stop id="stop4705" offset="0" stop-color="#e8f6f7"/><stop id="stop4707" offset="1" stop-color="#e8f6f7" stop-opacity="0"/></linearGradient><linearGradient id="linearGradient4670"><stop id="stop4672" offset="0" stop-color="#e5f5f6"/><stop id="stop4674" offset="1" stop-color="#e5f5f6" stop-opacity="0"/></linearGradient><linearGradient id="linearGradient7835"><stop id="stop7837" offset="0" stop-color="#a8dde0"/><stop id="stop7839" offset="1" stop-color="#a8dde0" stop-opacity="0"/></linearGradient><linearGradient id="linearGradient7804"><stop id="stop7806" offset="0" stop-color="#d8e8c2"/><stop id="stop7808" offset="1" stop-color="#5da854"/></linearGradient><linearGradient id="linearGradient7794"><stop id="stop7796" offset="0" stop-color="#00892c"/><stop id="stop7798" offset="1" stop-color="#b1d28f"/></linearGradient><linearGradient id="linearGradient7782"><stop id="stop7784" offset="0" stop-color="#77b753"/><stop id="stop7786" offset="1" stop-color="#006e29"/></linearGradient><linearGradient id="linearGradient7776"><stop id="stop7778" offset="0" stop-color="#187d31"/><stop id="stop7780" offset="1" stop-color="#75b652"/></linearGradient><linearGradient id="linearGradient3615"><stop id="stop3617" offset="0" stop-color="#80c93b"/><stop id="stop3619" offset="1" stop-color="#2b4900"/></linearGradient><linearGradient id="linearGradient3629" x1="865.708" x2="838.047" y1="828.643" y2="1180.362" gradientUnits="userSpaceOnUse" xlink:href="#linearGradient3615"/><linearGradient id="linearGradient3631" x1="856.601" x2="886" y1="727.643" y2="1180.362" gradientTransform="translate(-4,-7.9992176)" gradientUnits="userSpaceOnUse" xlink:href="#linearGradient3615"/><linearGradient id="linearGradient3633" x1="776.96" x2="777.919" y1="794.643" y2="1180.362" gradientUnits="userSpaceOnUse" xlink:href="#linearGradient3615"/><linearGradient id="linearGradient3635" x1=".495" x2="-.002" y1=".423" y2="1.221" xlink:href="#linearGradient3615"/><linearGradient id="linearGradient3637" x1=".534" x2=".649" y1=".5" y2="1.186" xlink:href="#linearGradient3615"/><linearGradient id="linearGradient3639" x1="1.074" x2=".458" y1=".163" y2="1.232" xlink:href="#linearGradient3615"/><linearGradient id="linearGradient3661" x1="210.607" x2="203.296" y1="860.513" y2="1180.362" gradientUnits="userSpaceOnUse" xlink:href="#linearGradient3615"/><linearGradient id="linearGradient3663" x1="230.183" x2="245.148" y1="774.643" y2="1180.362" gradientUnits="userSpaceOnUse" xlink:href="#linearGradient3615"/><linearGradient id="linearGradient3669" x1=".5" x2=".395" y1=".5" y2="1.319" xlink:href="#linearGradient3615"/><linearGradient id="linearGradient3671" x1=".495" x2=".707" y1=".482" y2="1.239" xlink:href="#linearGradient3615"/><linearGradient id="linearGradient3741" x1=".5" x2=".395" y1=".5" y2="1.319" xlink:href="#linearGradient3615"/><linearGradient id="linearGradient3743" x1=".527" x2=".753" y1=".5" y2="1.23" xlink:href="#linearGradient3615"/><linearGradient id="linearGradient4716" x1=".533" x2=".976" y1=".303" y2="1.251" xlink:href="#linearGradient3615"/><linearGradient id="linearGradient4718" x1=".529" x2=".536" y1=".5" y2="1.237" xlink:href="#linearGradient3615"/><linearGradient id="linearGradient4720" x1="-.013" x2="-.147" y1=".5" y2="1.266" xlink:href="#linearGradient3615"/><linearGradient id="linearGradient4728" x1=".5" x2=".395" y1=".5" y2="1.319" xlink:href="#linearGradient3615"/><linearGradient id="linearGradient4730" x1=".527" x2=".753" y1=".43" y2="1.263" xlink:href="#linearGradient3615"/><linearGradient id="linearGradient4738" x1=".534" x2=".436" y1=".5" y2="1.319" xlink:href="#linearGradient3615"/><linearGradient id="linearGradient4740" x1=".527" x2=".753" y1=".459" y2="1.249" xlink:href="#linearGradient3615"/><linearGradient id="linearGradient4747" x1=".5" x2=".395" y1=".5" y2="1.319" xlink:href="#linearGradient3615"/><linearGradient id="linearGradient4749" x1=".527" x2=".753" y1=".5" y2="1.23" xlink:href="#linearGradient3615"/><linearGradient id="linearGradient4761" x1="1.038" x2=".545" y1=".076" y2="1.256" xlink:href="#linearGradient3615"/><linearGradient id="linearGradient4763" x1=".486" x2="-.002" y1=".35" y2="1.249" xlink:href="#linearGradient3615"/><linearGradient id="linearGradient4765" x1=".619" x2=".72" y1=".506" y2="1.184" xlink:href="#linearGradient3615"/><linearGradient id="linearGradient4777" x1=".533" x2=".976" y1=".303" y2="1.251" xlink:href="#linearGradient3615"/><linearGradient id="linearGradient4779" x1=".513" x2=".522" y1=".476" y2="1.248" xlink:href="#linearGradient3615"/><linearGradient id="linearGradient4781" x1="-.013" x2="-.147" y1=".5" y2="1.266" xlink:href="#linearGradient3615"/><linearGradient id="linearGradient4793" x1="1.074" x2=".458" y1=".163" y2="1.232" xlink:href="#linearGradient3615"/><linearGradient id="linearGradient4795" x1=".495" x2="-.002" y1=".423" y2="1.221" xlink:href="#linearGradient3615"/><linearGradient id="linearGradient4797" x1=".534" x2=".649" y1=".5" y2="1.186" xlink:href="#linearGradient3615"/><linearGradient id="linearGradient4805" x1=".5" x2=".395" y1=".5" y2="1.319" xlink:href="#linearGradient3615"/><linearGradient id="linearGradient4807" x1=".527" x2=".753" y1=".5" y2="1.23" xlink:href="#linearGradient3615"/><linearGradient id="linearGradient4815" x1=".5" x2=".395" y1=".5" y2="1.319" xlink:href="#linearGradient3615"/><linearGradient id="linearGradient4817" x1=".495" x2=".707" y1=".482" y2="1.239" xlink:href="#linearGradient3615"/><linearGradient id="linearGradient4829" x1="1.038" x2=".545" y1=".076" y2="1.256" xlink:href="#linearGradient3615"/><linearGradient id="linearGradient4831" x1=".486" x2="-.002" y1=".35" y2="1.249" xlink:href="#linearGradient3615"/><linearGradient id="linearGradient4833" x1=".439" x2=".535" y1=".497" y2="1.187" xlink:href="#linearGradient3615"/><linearGradient id="linearGradient4841" x1=".534" x2=".436" y1=".5" y2="1.319" xlink:href="#linearGradient3615"/><linearGradient id="linearGradient4843" x1=".527" x2=".753" y1=".459" y2="1.249" xlink:href="#linearGradient3615"/><linearGradient id="linearGradient4851" x1=".5" x2=".395" y1=".5" y2="1.319" xlink:href="#linearGradient3615"/><linearGradient id="linearGradient4853" x1=".527" x2=".753" y1=".5" y2="1.23" xlink:href="#linearGradient3615"/><linearGradient id="linearGradient4871" x1=".533" x2=".976" y1=".303" y2="1.251" xlink:href="#linearGradient3615"/><linearGradient id="linearGradient4873" x1=".513" x2=".522" y1=".476" y2="1.248" xlink:href="#linearGradient3615"/><linearGradient id="linearGradient4875" x1="-.013" x2="-.147" y1=".5" y2="1.266" xlink:href="#linearGradient3615"/><linearGradient id="linearGradient4887" x1=".533" x2=".976" y1=".303" y2="1.251" xlink:href="#linearGradient3615"/><linearGradient id="linearGradient4889" x1=".529" x2=".536" y1=".5" y2="1.237" xlink:href="#linearGradient3615"/><linearGradient id="linearGradient4891" x1="-.013" x2="-.147" y1=".5" y2="1.266" xlink:href="#linearGradient3615"/><linearGradient id="linearGradient5161" x1=".533" x2=".976" y1=".303" y2="1.251" xlink:href="#linearGradient3615"/><linearGradient id="linearGradient5163" x1=".513" x2=".522" y1=".476" y2="1.248" xlink:href="#linearGradient3615"/><linearGradient id="linearGradient5165" x1="-.013" x2="-.147" y1=".5" y2="1.266" xlink:href="#linearGradient3615"/><linearGradient id="linearGradient5167" x1=".533" x2=".976" y1=".303" y2="1.251" xlink:href="#linearGradient3615"/><linearGradient id="linearGradient5169" x1=".529" x2=".536" y1=".5" y2="1.237" xlink:href="#linearGradient3615"/><linearGradient id="linearGradient5171" x1="-.013" x2="-.147" y1=".5" y2="1.266" xlink:href="#linearGradient3615"/><linearGradient id="linearGradient5173" x1=".5" x2=".395" y1=".5" y2="1.319" xlink:href="#linearGradient3615"/><linearGradient id="linearGradient5175" x1=".527" x2=".753" y1=".5" y2="1.23" xlink:href="#linearGradient3615"/><linearGradient id="linearGradient5177" x1=".534" x2=".436" y1=".5" y2="1.319" xlink:href="#linearGradient3615"/><linearGradient id="linearGradient5179" x1=".527" x2=".753" y1=".459" y2="1.249" xlink:href="#linearGradient3615"/><linearGradient id="linearGradient5181" x1="1.038" x2=".545" y1=".076" y2="1.256" xlink:href="#linearGradient3615"/><linearGradient id="linearGradient5183" x1=".486" x2="-.002" y1=".35" y2="1.249" xlink:href="#linearGradient3615"/><linearGradient id="linearGradient5185" x1=".439" x2=".535" y1=".497" y2="1.187" xlink:href="#linearGradient3615"/><linearGradient id="linearGradient5187" x1=".5" x2=".395" y1=".5" y2="1.319" xlink:href="#linearGradient3615"/><linearGradient id="linearGradient5189" x1=".495" x2=".707" y1=".482" y2="1.239" xlink:href="#linearGradient3615"/><linearGradient id="linearGradient5191" x1=".5" x2=".395" y1=".5" y2="1.319" xlink:href="#linearGradient3615"/><linearGradient id="linearGradient5193" x1=".527" x2=".753" y1=".5" y2="1.23" xlink:href="#linearGradient3615"/><linearGradient id="linearGradient5195" x1="1.074" x2=".458" y1=".163" y2="1.232" xlink:href="#linearGradient3615"/><linearGradient id="linearGradient5197" x1=".495" x2="-.002" y1=".423" y2="1.221" xlink:href="#linearGradient3615"/><linearGradient id="linearGradient5199" x1=".534" x2=".649" y1=".5" y2="1.186" xlink:href="#linearGradient3615"/><linearGradient id="linearGradient5201" x1=".533" x2=".976" y1=".303" y2="1.251" xlink:href="#linearGradient3615"/><linearGradient id="linearGradient5203" x1=".513" x2=".522" y1=".476" y2="1.248" xlink:href="#linearGradient3615"/><linearGradient id="linearGradient5205" x1="-.013" x2="-.147" y1=".5" y2="1.266" xlink:href="#linearGradient3615"/><linearGradient id="linearGradient5207" x1="1.038" x2=".545" y1=".076" y2="1.256" xlink:href="#linearGradient3615"/><linearGradient id="linearGradient5209" x1=".486" x2="-.002" y1=".35" y2="1.249" xlink:href="#linearGradient3615"/><linearGradient id="linearGradient5211" x1=".34" x2=".414" y1=".537" y2="1.172" xlink:href="#linearGradient3615"/><linearGradient id="linearGradient5213" x1=".534" x2=".436" y1=".5" y2="1.319" xlink:href="#linearGradient3615"/><linearGradient id="linearGradient5215" x1=".527" x2=".753" y1=".459" y2="1.249" xlink:href="#linearGradient3615"/><linearGradient id="linearGradient5217" x1=".5" x2=".395" y1=".5" y2="1.319" xlink:href="#linearGradient3615"/><linearGradient id="linearGradient5219" x1=".527" x2=".753" y1=".43" y2="1.263" xlink:href="#linearGradient3615"/><linearGradient id="linearGradient5221" x1="1.074" x2=".458" y1=".163" y2="1.232" xlink:href="#linearGradient3615"/><linearGradient id="linearGradient5223" x1=".495" x2="-.002" y1=".423" y2="1.221" xlink:href="#linearGradient3615"/><linearGradient id="linearGradient5225" x1=".534" x2=".649" y1=".5" y2="1.186" xlink:href="#linearGradient3615"/><linearGradient id="linearGradient5227" x1=".5" x2=".395" y1=".5" y2="1.319" xlink:href="#linearGradient3615"/><linearGradient id="linearGradient5229" x1=".495" x2=".707" y1=".482" y2="1.239" xlink:href="#linearGradient3615"/><linearGradient id="linearGradient5231" x1=".533" x2=".976" y1=".303" y2="1.251" xlink:href="#linearGradient3615"/><linearGradient id="linearGradient5233" x1=".529" x2=".536" y1=".5" y2="1.237" xlink:href="#linearGradient3615"/><linearGradient id="linearGradient5235" x1="-.013" x2="-.147" y1=".5" y2="1.266" xlink:href="#linearGradient3615"/><linearGradient id="linearGradient5237" x1=".5" x2=".395" y1=".5" y2="1.319" xlink:href="#linearGradient3615"/><linearGradient id="linearGradient5239" x1=".527" x2=".753" y1=".5" y2="1.23" xlink:href="#linearGradient3615"/><linearGradient id="linearGradient5241" x1=".5" x2=".395" y1=".5" y2="1.319" xlink:href="#linearGradient3615"/><linearGradient id="linearGradient5243" x1=".527" x2=".753" y1=".5" y2="1.23" xlink:href="#linearGradient3615"/><linearGradient id="linearGradient5245" x1=".533" x2=".976" y1=".303" y2="1.251" xlink:href="#linearGradient3615"/><linearGradient id="linearGradient5247" x1=".529" x2=".536" y1=".5" y2="1.237" xlink:href="#linearGradient3615"/><linearGradient id="linearGradient5249" x1="-.013" x2="-.147" y1=".5" y2="1.266" xlink:href="#linearGradient3615"/><linearGradient id="linearGradient5251" x1=".533" x2=".976" y1=".303" y2="1.251" xlink:href="#linearGradient3615"/><linearGradient id="linearGradient5253" x1=".513" x2=".522" y1=".476" y2="1.248" xlink:href="#linearGradient3615"/><linearGradient id="linearGradient5255" x1="-.013" x2="-.147" y1=".5" y2="1.266" xlink:href="#linearGradient3615"/><linearGradient id="linearGradient5257" x1=".5" x2=".395" y1=".5" y2="1.319" xlink:href="#linearGradient3615"/><linearGradient id="linearGradient5259" x1=".527" x2=".753" y1=".5" y2="1.23" xlink:href="#linearGradient3615"/><linearGradient id="linearGradient5261" x1=".534" x2=".436" y1=".5" y2="1.319" xlink:href="#linearGradient3615"/><linearGradient id="linearGradient5263" x1=".527" x2=".753" y1=".459" y2="1.249" xlink:href="#linearGradient3615"/><linearGradient id="linearGradient5265" x1="1.038" x2=".545" y1=".076" y2="1.256" xlink:href="#linearGradient3615"/><linearGradient id="linearGradient5267" x1=".486" x2="-.002" y1=".35" y2="1.249" xlink:href="#linearGradient3615"/><linearGradient id="linearGradient5269" x1=".459" x2=".559" y1=".482" y2="1.193" xlink:href="#linearGradient3615"/><linearGradient id="linearGradient5271" x1=".5" x2=".395" y1=".5" y2="1.319" xlink:href="#linearGradient3615"/><linearGradient id="linearGradient5273" x1=".495" x2=".707" y1=".482" y2="1.239" xlink:href="#linearGradient3615"/><linearGradient id="linearGradient5275" x1=".5" x2=".395" y1=".5" y2="1.319" xlink:href="#linearGradient3615"/><linearGradient id="linearGradient5277" x1=".527" x2=".753" y1=".5" y2="1.23" xlink:href="#linearGradient3615"/><linearGradient id="linearGradient5279" x1="1.074" x2=".458" y1=".163" y2="1.232" xlink:href="#linearGradient3615"/><linearGradient id="linearGradient5281" x1=".495" x2="-.002" y1=".423" y2="1.221" xlink:href="#linearGradient3615"/><linearGradient id="linearGradient5283" x1=".534" x2=".649" y1=".5" y2="1.186" xlink:href="#linearGradient3615"/><linearGradient id="linearGradient5285" x1=".533" x2=".976" y1=".303" y2="1.251" xlink:href="#linearGradient3615"/><linearGradient id="linearGradient5287" x1=".513" x2=".522" y1=".476" y2="1.248" xlink:href="#linearGradient3615"/><linearGradient id="linearGradient5289" x1="-.013" x2="-.147" y1=".5" y2="1.266" xlink:href="#linearGradient3615"/><linearGradient id="linearGradient5291" x1="1.038" x2=".545" y1=".076" y2="1.256" xlink:href="#linearGradient3615"/><linearGradient id="linearGradient5293" x1=".486" x2="-.002" y1=".35" y2="1.249" xlink:href="#linearGradient3615"/><linearGradient id="linearGradient5295" x1=".439" x2=".535" y1=".497" y2="1.187" xlink:href="#linearGradient3615"/><linearGradient id="linearGradient5297" x1=".534" x2=".436" y1=".5" y2="1.319" xlink:href="#linearGradient3615"/><linearGradient id="linearGradient5299" x1=".527" x2=".753" y1=".459" y2="1.249" xlink:href="#linearGradient3615"/><linearGradient id="linearGradient5301" x1=".5" x2=".395" y1=".5" y2="1.319" xlink:href="#linearGradient3615"/><linearGradient id="linearGradient5303" x1=".527" x2=".753" y1=".43" y2="1.263" xlink:href="#linearGradient3615"/><linearGradient id="linearGradient5305" x1="1.074" x2=".458" y1=".163" y2="1.232" xlink:href="#linearGradient3615"/><linearGradient id="linearGradient5307" x1=".495" x2="-.002" y1=".423" y2="1.221" xlink:href="#linearGradient3615"/><linearGradient id="linearGradient5309" x1=".534" x2=".649" y1=".5" y2="1.186" xlink:href="#linearGradient3615"/><linearGradient id="linearGradient5311" x1=".5" x2=".395" y1=".5" y2="1.319" xlink:href="#linearGradient3615"/><linearGradient id="linearGradient5313" x1=".495" x2=".707" y1=".482" y2="1.239" xlink:href="#linearGradient3615"/><linearGradient id="linearGradient5315" x1=".533" x2=".976" y1=".303" y2="1.251" xlink:href="#linearGradient3615"/><linearGradient id="linearGradient5317" x1=".529" x2=".536" y1=".5" y2="1.237" xlink:href="#linearGradient3615"/><linearGradient id="linearGradient5319" x1="-.013" x2="-.147" y1=".5" y2="1.266" xlink:href="#linearGradient3615"/><linearGradient id="linearGradient5321" x1=".5" x2=".395" y1=".5" y2="1.319" xlink:href="#linearGradient3615"/><linearGradient id="linearGradient5323" x1=".527" x2=".753" y1=".5" y2="1.23" xlink:href="#linearGradient3615"/><linearGradient id="linearGradient5325" x1=".5" x2=".395" y1=".5" y2="1.319" xlink:href="#linearGradient3615"/><linearGradient id="linearGradient5327" x1=".527" x2=".753" y1=".5" y2="1.23" xlink:href="#linearGradient3615"/><linearGradient id="linearGradient7774" x1="Infinity" x2="Infinity" y1="13.228" y2="0" xlink:href="#linearGradient7776"/><linearGradient id="linearGradient7788" x1=".795" x2=".5" y1=".09" y2="1.387" xlink:href="#linearGradient7782"/><linearGradient id="linearGradient7792" x1="Infinity" x2="Infinity" y1="25.252" y2="4.651" xlink:href="#linearGradient7794"/><linearGradient id="linearGradient7810" x1=".774" x2=".742" y1="0" y2=".655" xlink:href="#linearGradient7804"/><linearGradient id="linearGradient7841" x1=".456" x2=".46" y1=".067" y2=".629" xlink:href="#linearGradient7835"/><linearGradient id="linearGradient7990" x1=".326" x2="1" y1="1.639" y2=".5" xlink:href="#linearGradient7776"/><linearGradient id="linearGradient4676" x1=".382" x2=".5" y1="1" y2=".262" xlink:href="#linearGradient4670"/><linearGradient id="linearGradient4709" x1=".5" x2=".5" y1="1" y2="0" xlink:href="#linearGradient4703"/></defs><metadata id="metadata7">image/svg+xml</metadata><g><title>Layer 1</title><rect id="rect7833" width="1278.051" height="673.052" x="3.599" y="1" fill="url(#linearGradient7841)"/><path id="path7800" fill="url(#linearGradient7810)" d="m1279.650513,444.02829c-83.960205,-53.936127 -841.945007,-210.101501 -1093.833496,223.442474l1093.833496,110.030701l0,-333.473175z"/><path id="path7790" fill="url(#linearGradient7792)" d="m3.599298,439.329315c422.29505,-59.950287 800.473516,25.247253 1095.790838,231.285309l-1095.790838,69.162109l0,-300.447418z"/><path id="path7772" fill="url(#linearGradient7788)" d="m898.900818,482.136902c3.526855,9.817932 8.719788,26.870911 13.540283,44.061401c-0.611328,0.031372 -1.223267,0.065613 -1.833984,0.098206c-6.096802,-9.31543 -14.554077,-17.272705 -26.534241,-20.67981c7.431335,3.319946 13.896851,11.426025 19.198242,21.023682c-48.69458,2.968811 -95.417358,9.56897 -140.358154,20.434204c2.599121,-8.032837 5.89032,-15.107788 9.911377,-19.844849c-6.132202,5.549072 -10.758667,12.364014 -14.242676,19.648438c-0.211121,-15.608093 -1.055725,-29.36676 -3.082703,-35.170532c0.052307,8.813354 -0.417358,22.750305 -1.170471,37.528259c-1.338623,0.341736 -2.683899,0.682129 -4.019226,1.031555c-2.749756,-8.57135 -7.195923,-16.675049 -14.281616,-23.086792c4.756042,5.603088 7.682739,14.503296 9.403992,24.363953c-17.112244,4.611755 -33.927612,9.881165 -50.532043,15.816895c-0.026428,-8.37384 0.826294,-16.208191 3.0047,-22.349915c-3.732422,7.681335 -5.832825,15.744873 -6.867798,23.72522c-0.192871,0.070435 -0.392395,0.125977 -0.585266,0.196594c-4.87323,-13.792542 -9.746277,-25.574402 -13.30603,-29.816406c2.505554,7.336243 5.90448,18.796814 9.403992,31.289978c-2.06958,0.772217 -4.142639,1.564026 -6.204407,2.35791c-4.486023,-4.463745 -9.859924,-7.957458 -16.349731,-9.82428c4.440491,2.063721 8.532593,6.184631 12.213562,11.44519c-150.240967,59.049011 -280.024841,176.152161 -397.97403,379.163269l1001.432037,0l0,-396.35553c-36.342407,-6.479614 -71.752075,-12.092712 -106.293091,-16.799377c1.415527,-12.958984 4.541016,-25.360474 10.575073,-32.468811c-9.42334,8.526489 -14.214722,20.033264 -16.506104,31.682922c-0.442627,-0.059082 -0.884277,-0.137695 -1.326782,-0.196533c-1.045776,-18.116821 -1.740967,-36.331665 -1.677856,-47.008545c-2.026978,5.803833 -2.83252,19.611633 -3.043701,35.219666c-3.483887,-7.284424 -8.149414,-14.099487 -14.281616,-19.648438c5.74646,6.769653 9.99646,18.326172 12.876953,30.602356c-15.65918,-2.033142 -31.134277,-3.841858 -46.434937,-5.452393c1.465454,-12.601318 4.576172,-24.557617 10.457764,-31.48645c-9.197876,8.322754 -13.994141,19.485596 -16.349854,30.847839c-0.506104,-0.051575 -1.015991,-0.096252 -1.521729,-0.147278c-1.020752,-17.854675 -1.701172,-35.70105 -1.638916,-46.222717c-2.026978,5.803833 -2.83252,19.611633 -3.043579,35.219666c-3.484131,-7.284485 -8.149414,-14.099487 -14.281616,-19.648315c5.652954,6.659668 9.84314,17.959656 12.720581,30.012756c-41.869507,-4.07605 -82.377014,-6.377075 -121.667114,-6.778625c2.742188,-9.407166 6.351074,-17.844482 10.926025,-23.234131c-6.132385,5.548828 -10.797668,12.363831 -14.281738,19.648315c-0.21106,-15.608032 -1.016663,-29.415833 -3.04364,-35.219666c0.05365,9.036865 -0.46167,23.501038 -1.248718,38.707214c-1.304321,-0.0047 -2.600464,0.000305 -3.902039,0c-2.758423,-8.609985 -7.2453,-16.747375 -14.359741,-23.184937c4.572937,5.386963 7.451904,13.828796 9.209045,23.234192c-14.393677,0.0625 -28.627075,0.350708 -42.688904,0.982239c-1.411316,-13.703491 -1.095032,-27.675781 2.848572,-37.331726c-4.455139,8.011963 -6.973877,16.464417 -8.155334,24.855103c-5.31488,-14.401855 -10.6651,-26.793335 -14.632813,-31.240906l0,-0.000061z"/><path id="rect7769" fill="url(#linearGradient7774)" d="m1.599299,615.324036c508.381414,-67.488647 859.049078,-31.741638 1147.737493,338.226257l-1147.737493,0l0,-338.226257z"/><path id="path7904" fill="#382509" fill-opacity=".359" fill-rule="evenodd" stroke-width="1" d="m1027.006226,563.088013c-16.210205,0.207275 -33.3172,2.146301 -47.293213,13.409973c-12.5849,-0.090881 -25.240234,-1.608765 -37.694153,1.571838c-10.145325,1.982849 -20.558472,5.872742 -28.290161,14.736145c-1.578491,3.189697 -1.740662,6.358704 -1.014587,9.283997c-5.326721,3.018372 -9.255188,6.511597 -11.355042,10.266174c-1.91626,-0.070557 -3.845398,-0.074097 -5.775085,0.049133c-10.582703,0.249084 -21.624634,1.652588 -31.060486,8.055725c-6.843872,10.033752 6.334839,17.716919 13.266968,17.781677c13.339355,3.239441 27.06604,2.896301 40.386719,-0.196411c12.530029,5.505859 30.337769,8.989014 50.102783,8.989014c11.130066,0 21.606628,-1.109192 30.90448,-3.045471c18.414795,10.121704 39.600952,8.822815 59.272705,6.533142c9.456299,-1.641602 19.355225,-4.550659 26.729492,-12.624084c3.873047,-10.245361 -5.782959,-17.121033 -12.525879,-18.960632c-2.25354,-0.757141 -4.509521,-1.419556 -6.789551,-2.013977c2.741333,-3.243652 4.292114,-6.880066 4.292114,-10.708313c0,-4.279602 -1.928711,-8.316101 -5.306763,-11.838074c3.102905,-1.649841 6.099609,-3.651123 8.896973,-6.140137c5.02832,-12.825439 -8.787964,-19.806213 -16.779175,-21.023682c-9.771606,-3.095032 -19.918701,-4.026428 -29.96814,-4.12616l0,0.000122z"/><path id="path7971" fill="url(#linearGradient7990)" fill-rule="evenodd" stroke-width="1" d="m345.428558,481.449219c-39.556854,0 -72.731262,10.982178 -81.514587,25.690186c-13.00795,-3.428955 -28.07782,-5.403259 -44.171646,-5.403259c-48.93512,0 -88.577423,18.103333 -88.577423,40.475464c0,11.678528 10.800705,22.227051 28.095047,29.619934c-18.733215,4.207092 -31.333771,12.04071 -31.333771,21.023621c0,1.556274 0.409073,3.093445 1.131622,4.568237c87.072632,-7.56958 169.350006,-11.075684 247.392395,-9.283813c13.736786,-5.950623 22.124817,-13.86615 22.124817,-22.59552c0,-7.679871 -6.487396,-14.790649 -17.40332,-20.434265c28.384766,-5.351318 47.995636,-16.853699 47.995636,-30.20929c0,-18.457214 -37.47287,-33.451294 -83.73877,-33.451294z" opacity=".388"/><g id="g8028" transform="matrix(0.145431 0 0 0.105024 -200.634 1192.16)"><path id="path8030" fill="#eeeeec" d="m4597.973145,-5483.830566c-6.330566,0.714355 -3.805176,25.524414 2.384277,47.520508c-15.124023,-11.251953 -32.639648,-20.037598 -40.855957,-18.502441c-9.40625,1.757324 8.55127,22.457031 28.081055,37.870605c-18.851074,-0.214355 -38.186035,2.969238 -43.931641,9.041016c-6.574707,6.948242 20.102051,13.097656 44.954102,14.091797c-15.375977,10.907227 -29.147949,24.868164 -30.227051,33.157227c-1.23584,9.489258 24.015137,-1.206543 44.709473,-15.017578c-6.029297,17.862793 -8.991211,37.244629 -4.991699,44.585449c4.577148,8.401367 18.683105,-15.069824 27.307617,-38.402832c5.621094,17.999023 14.638672,35.379395 22.19043,38.96875c8.641602,4.106445 6.276367,-23.162109 -0.460938,-47.108398c15.123535,11.251953 32.63916,20.037598 40.855957,18.502441c9.408203,-1.757813 -8.578613,-22.453125 -28.112793,-37.867676c18.861328,0.218262 38.214355,-2.96875 43.963379,-9.044434c6.574707,-6.947754 -20.102051,-13.097656 -44.95459,-14.091797c15.376465,-10.90625 29.117188,-24.864746 30.196289,-33.153809c1.235352,-9.489258 -23.984375,1.203125 -44.678711,15.014648c6.029785,-17.862793 8.991211,-37.244629 4.992188,-44.585449c-4.577148,-8.401367 -18.683594,15.069824 -27.307617,38.402832c-5.621094,-17.998535 -14.672852,-35.407715 -22.224609,-38.996582c-0.704102,-0.334473 -1.328125,-0.447754 -1.88916,-0.384277z"/><path id="path8032" fill="#fd0" fill-rule="evenodd" stroke-width="1.34" d="m4657.418457,-5410.217773a30.20414,29.5 0 1 1 -60.408691,0a30.20414,29.5 0 1 1 60.408691,0z"/></g><g id="g8034" transform="matrix(0.145431 0 0 0.105024 -405.416 1226.74)"><path id="path8036" fill="#eeeeec" d="m4597.973145,-5483.830566c-6.330566,0.714355 -3.805176,25.524414 2.384277,47.520508c-15.124023,-11.251953 -32.639648,-20.037598 -40.855957,-18.502441c-9.40625,1.757324 8.55127,22.457031 28.081055,37.870605c-18.851074,-0.214355 -38.186035,2.969238 -43.931641,9.041016c-6.574707,6.948242 20.102051,13.097656 44.954102,14.091797c-15.375977,10.907227 -29.147949,24.868164 -30.227051,33.157227c-1.23584,9.489258 24.015137,-1.206543 44.709473,-15.017578c-6.029297,17.862793 -8.991211,37.244629 -4.991699,44.585449c4.577148,8.401367 18.683105,-15.069824 27.307617,-38.402832c5.621094,17.999023 14.638672,35.379395 22.19043,38.96875c8.641602,4.106445 6.276367,-23.162109 -0.460938,-47.108398c15.123535,11.251953 32.63916,20.037598 40.855957,18.502441c9.408203,-1.757813 -8.578613,-22.453125 -28.112793,-37.867676c18.861328,0.218262 38.214355,-2.96875 43.963379,-9.044434c6.574707,-6.947754 -20.102051,-13.097656 -44.95459,-14.091797c15.376465,-10.90625 29.117188,-24.864746 30.196289,-33.153809c1.235352,-9.489258 -23.984375,1.203125 -44.678711,15.014648c6.029785,-17.862793 8.991211,-37.244629 4.992188,-44.585449c-4.577148,-8.401367 -18.683594,15.069824 -27.307617,38.402832c-5.621094,-17.998535 -14.672852,-35.407715 -22.224609,-38.996582c-0.704102,-0.334473 -1.328125,-0.447754 -1.88916,-0.384277z"/><path id="path8038" fill="#fd0" fill-rule="evenodd" stroke-width="1.34" d="m4657.418457,-5410.217773a30.20414,29.5 0 1 1 -60.408691,0a30.20414,29.5 0 1 1 60.408691,0z"/></g><g id="g8040" transform="matrix(0.122338 0 0 0.0883474 210.441 1158.86)"><path id="path8042" fill="#eeeeec" d="m5422.693848,-6750.276367c-6.330566,0.714355 -3.804688,25.523926 2.383789,47.520508c-15.123047,-11.251953 -32.63916,-20.037598 -40.855469,-18.502441c-9.406738,1.757324 8.55127,22.457031 28.081055,37.870605c-18.851074,-0.214355 -38.186035,2.969238 -43.931641,9.041504c-6.574219,6.947754 20.102051,13.097168 44.954102,14.091309c-15.376465,10.906738 -29.147949,24.868164 -30.227051,33.157227c-1.23584,9.489258 24.015137,-1.206543 44.709473,-15.01709c-6.029297,17.862305 -8.991211,37.244141 -4.992188,44.584961c4.577637,8.401367 18.683594,-15.069824 27.308105,-38.402832c5.621094,17.998535 14.638184,35.379395 22.19043,38.968262c8.641602,4.106445 6.276367,-23.161621 -0.461426,-47.10791c15.124023,11.251953 32.639648,20.037598 40.855957,18.502441c9.408203,-1.757324 -8.578613,-22.453125 -28.112305,-37.867676c18.861328,0.218262 38.214355,-2.96875 43.963379,-9.044434c6.574219,-6.947754 -20.102539,-13.097656 -44.95459,-14.091797c15.376465,-10.90625 29.117188,-24.864746 30.196289,-33.153809c1.23584,-9.489258 -23.983887,1.203125 -44.678223,15.014648c6.029297,-17.862793 8.991211,-37.244141 4.991699,-44.585449c-4.577637,-8.401367 -18.683105,15.069824 -27.307617,38.402832c-5.621582,-17.999023 -14.672852,-35.407715 -22.224609,-38.996582c-0.704102,-0.334473 -1.327637,-0.447754 -1.88916,-0.384277z"/><path id="path8044" fill="#fd0" fill-rule="evenodd" stroke-width="1.34" d="m5482.138672,-6676.663086a30.20414,29.5 0 1 1 -60.408203,0a30.20414,29.5 0 1 1 60.408203,0z"/></g><g id="g8046" transform="matrix(0.122338 0 0 0.0883474 274.123 1262.6)"><path id="path8048" fill="#eeeeec" d="m5422.693848,-6750.276367c-6.330566,0.714355 -3.804688,25.523926 2.383789,47.520508c-15.123047,-11.251953 -32.63916,-20.037598 -40.855469,-18.502441c-9.406738,1.757324 8.55127,22.457031 28.081055,37.870605c-18.851074,-0.214355 -38.186035,2.969238 -43.931641,9.041504c-6.574219,6.947754 20.102051,13.097168 44.954102,14.091309c-15.376465,10.906738 -29.147949,24.868164 -30.227051,33.157227c-1.23584,9.489258 24.015137,-1.206543 44.709473,-15.01709c-6.029297,17.862305 -8.991211,37.244141 -4.992188,44.584961c4.577637,8.401367 18.683594,-15.069824 27.308105,-38.402832c5.621094,17.998535 14.638184,35.379395 22.19043,38.968262c8.641602,4.106445 6.276367,-23.161621 -0.461426,-47.10791c15.124023,11.251953 32.639648,20.037598 40.855957,18.502441c9.408203,-1.757324 -8.578613,-22.453125 -28.112305,-37.867676c18.861328,0.218262 38.214355,-2.96875 43.963379,-9.044434c6.574219,-6.947754 -20.102539,-13.097656 -44.95459,-14.091797c15.376465,-10.90625 29.117188,-24.864746 30.196289,-33.153809c1.23584,-9.489258 -23.983887,1.203125 -44.678223,15.014648c6.029297,-17.862793 8.991211,-37.244141 4.991699,-44.585449c-4.577637,-8.401367 -18.683105,15.069824 -27.307617,38.402832c-5.621582,-17.999023 -14.672852,-35.407715 -22.224609,-38.996582c-0.704102,-0.334473 -1.327637,-0.447754 -1.88916,-0.384277z"/><path id="path8050" fill="#fd0" fill-rule="evenodd" stroke-width="1.34" d="m5482.138672,-6676.663086a30.20414,29.5 0 1 1 -60.408203,0a30.20414,29.5 0 1 1 60.408203,0z"/></g><g id="g8052" transform="matrix(0.0942985 0 0 0.0680984 -121.028 1103.49)"><path id="path8054" fill="#eeeeec" d="m6967.044922,-9121.794922c-6.330566,0.714844 -3.805176,25.524414 2.384277,47.520508c-15.124023,-11.251953 -32.639648,-20.037109 -40.855957,-18.501953c-9.406738,1.756836 8.55127,22.457031 28.081543,37.870117c-18.851563,-0.214844 -38.186523,2.96875 -43.932617,9.041016c-6.574219,6.948242 20.102539,13.097656 44.954102,14.091797c-15.375977,10.907227 -29.147461,24.868164 -30.226563,33.157227c-1.235352,9.489258 24.014648,-1.206055 44.709473,-15.017578c-6.029785,17.862305 -8.991699,37.244141 -4.991699,44.584961c4.577148,8.401367 18.682617,-15.069336 27.307617,-38.402344c5.621094,17.999023 14.637695,35.379883 22.19043,38.96875c8.641113,4.106445 6.276367,-23.162109 -0.461914,-47.108398c15.124023,11.251953 32.640625,20.037109 40.856445,18.50293c9.408203,-1.757813 -8.578125,-22.454102 -28.112305,-37.868164c18.861328,0.21875 38.214355,-2.96875 43.962891,-9.043945c6.574219,-6.948242 -20.102539,-13.097656 -44.954102,-14.091797c15.376465,-10.907227 29.117188,-24.865234 30.196289,-33.154297c1.235352,-9.489258 -23.984375,1.203125 -44.678711,15.014648c6.029297,-17.863281 8.991211,-37.244141 4.992188,-44.584961c-4.577148,-8.401367 -18.683594,15.069336 -27.307617,38.402344c-5.621094,-17.999023 -14.672852,-35.408203 -22.224609,-38.996094c-0.704102,-0.334961 -1.328125,-0.448242 -1.88916,-0.384766z"/><path id="path8056" fill="#fd0" fill-rule="evenodd" stroke-width="1.34" d="m7026.489746,-9048.181641a30.20414,29.5 0 1 1 -60.408691,0a30.20414,29.5 0 1 1 60.408691,0z"/></g><g id="g8058" transform="matrix(0.0942985 0 0 0.0680984 -420.709 1056.33)"><path id="path8060" fill="#eeeeec" d="m6967.044922,-9121.794922c-6.330566,0.714844 -3.805176,25.524414 2.384277,47.520508c-15.124023,-11.251953 -32.639648,-20.037109 -40.855957,-18.501953c-9.406738,1.756836 8.55127,22.457031 28.081543,37.870117c-18.851563,-0.214844 -38.186523,2.96875 -43.932617,9.041016c-6.574219,6.948242 20.102539,13.097656 44.954102,14.091797c-15.375977,10.907227 -29.147461,24.868164 -30.226563,33.157227c-1.235352,9.489258 24.014648,-1.206055 44.709473,-15.017578c-6.029785,17.862305 -8.991699,37.244141 -4.991699,44.584961c4.577148,8.401367 18.682617,-15.069336 27.307617,-38.402344c5.621094,17.999023 14.637695,35.379883 22.19043,38.96875c8.641113,4.106445 6.276367,-23.162109 -0.461914,-47.108398c15.124023,11.251953 32.640625,20.037109 40.856445,18.50293c9.408203,-1.757813 -8.578125,-22.454102 -28.112305,-37.868164c18.861328,0.21875 38.214355,-2.96875 43.962891,-9.043945c6.574219,-6.948242 -20.102539,-13.097656 -44.954102,-14.091797c15.376465,-10.907227 29.117188,-24.865234 30.196289,-33.154297c1.235352,-9.489258 -23.984375,1.203125 -44.678711,15.014648c6.029297,-17.863281 8.991211,-37.244141 4.992188,-44.584961c-4.577148,-8.401367 -18.683594,15.069336 -27.307617,38.402344c-5.621094,-17.999023 -14.672852,-35.408203 -22.224609,-38.996094c-0.704102,-0.334961 -1.328125,-0.448242 -1.88916,-0.384766z"/><path id="path8062" fill="#fd0" fill-rule="evenodd" stroke-width="1.34" d="m7026.489746,-9048.181641a30.20414,29.5 0 1 1 -60.408691,0a30.20414,29.5 0 1 1 60.408691,0z"/></g><g id="g8064" transform="matrix(0.0942985 0 0 0.0680984 -158.489 1178.94)"><path id="path8066" fill="#eeeeec" d="m6967.044922,-9121.794922c-6.330566,0.714844 -3.805176,25.524414 2.384277,47.520508c-15.124023,-11.251953 -32.639648,-20.037109 -40.855957,-18.501953c-9.406738,1.756836 8.55127,22.457031 28.081543,37.870117c-18.851563,-0.214844 -38.186523,2.96875 -43.932617,9.041016c-6.574219,6.948242 20.102539,13.097656 44.954102,14.091797c-15.375977,10.907227 -29.147461,24.868164 -30.226563,33.157227c-1.235352,9.489258 24.014648,-1.206055 44.709473,-15.017578c-6.029785,17.862305 -8.991699,37.244141 -4.991699,44.584961c4.577148,8.401367 18.682617,-15.069336 27.307617,-38.402344c5.621094,17.999023 14.637695,35.379883 22.19043,38.96875c8.641113,4.106445 6.276367,-23.162109 -0.461914,-47.108398c15.124023,11.251953 32.640625,20.037109 40.856445,18.50293c9.408203,-1.757813 -8.578125,-22.454102 -28.112305,-37.868164c18.861328,0.21875 38.214355,-2.96875 43.962891,-9.043945c6.574219,-6.948242 -20.102539,-13.097656 -44.954102,-14.091797c15.376465,-10.907227 29.117188,-24.865234 30.196289,-33.154297c1.235352,-9.489258 -23.984375,1.203125 -44.678711,15.014648c6.029297,-17.863281 8.991211,-37.244141 4.992188,-44.584961c-4.577148,-8.401367 -18.683594,15.069336 -27.307617,38.402344c-5.621094,-17.999023 -14.672852,-35.408203 -22.224609,-38.996094c-0.704102,-0.334961 -1.328125,-0.448242 -1.88916,-0.384766z"/><path id="path8068" fill="#fd0" fill-rule="evenodd" stroke-width="1.34" d="m7026.489746,-9048.181641a30.20414,29.5 0 1 1 -60.408691,0a30.20414,29.5 0 1 1 60.408691,0z"/></g><g id="g8070" transform="matrix(0.0942985 0 0 0.0680984 -83.5684 1147.5)"><path id="path8072" fill="#eeeeec" d="m6967.044922,-9121.794922c-6.330566,0.714844 -3.805176,25.524414 2.384277,47.520508c-15.124023,-11.251953 -32.639648,-20.037109 -40.855957,-18.501953c-9.406738,1.756836 8.55127,22.457031 28.081543,37.870117c-18.851563,-0.214844 -38.186523,2.96875 -43.932617,9.041016c-6.574219,6.948242 20.102539,13.097656 44.954102,14.091797c-15.375977,10.907227 -29.147461,24.868164 -30.226563,33.157227c-1.235352,9.489258 24.014648,-1.206055 44.709473,-15.017578c-6.029785,17.862305 -8.991699,37.244141 -4.991699,44.584961c4.577148,8.401367 18.682617,-15.069336 27.307617,-38.402344c5.621094,17.999023 14.637695,35.379883 22.19043,38.96875c8.641113,4.106445 6.276367,-23.162109 -0.461914,-47.108398c15.124023,11.251953 32.640625,20.037109 40.856445,18.50293c9.408203,-1.757813 -8.578125,-22.454102 -28.112305,-37.868164c18.861328,0.21875 38.214355,-2.96875 43.962891,-9.043945c6.574219,-6.948242 -20.102539,-13.097656 -44.954102,-14.091797c15.376465,-10.907227 29.117188,-24.865234 30.196289,-33.154297c1.235352,-9.489258 -23.984375,1.203125 -44.678711,15.014648c6.029297,-17.863281 8.991211,-37.244141 4.992188,-44.584961c-4.577148,-8.401367 -18.683594,15.069336 -27.307617,38.402344c-5.621094,-17.999023 -14.672852,-35.408203 -22.224609,-38.996094c-0.704102,-0.334961 -1.328125,-0.448242 -1.88916,-0.384766z"/><path id="path8074" fill="#fd0" fill-rule="evenodd" stroke-width="1.34" d="m7026.489746,-9048.181641a30.20414,29.5 0 1 1 -60.408691,0a30.20414,29.5 0 1 1 60.408691,0z"/></g><g id="g8076" transform="matrix(0.0942985 0 0 0.0680984 -258.382 1147.5)"><path id="path8078" fill="#eeeeec" d="m6967.044922,-9121.794922c-6.330566,0.714844 -3.805176,25.524414 2.384277,47.520508c-15.124023,-11.251953 -32.639648,-20.037109 -40.855957,-18.501953c-9.406738,1.756836 8.55127,22.457031 28.081543,37.870117c-18.851563,-0.214844 -38.186523,2.96875 -43.932617,9.041016c-6.574219,6.948242 20.102539,13.097656 44.954102,14.091797c-15.375977,10.907227 -29.147461,24.868164 -30.226563,33.157227c-1.235352,9.489258 24.014648,-1.206055 44.709473,-15.017578c-6.029785,17.862305 -8.991699,37.244141 -4.991699,44.584961c4.577148,8.401367 18.682617,-15.069336 27.307617,-38.402344c5.621094,17.999023 14.637695,35.379883 22.19043,38.96875c8.641113,4.106445 6.276367,-23.162109 -0.461914,-47.108398c15.124023,11.251953 32.640625,20.037109 40.856445,18.50293c9.408203,-1.757813 -8.578125,-22.454102 -28.112305,-37.868164c18.861328,0.21875 38.214355,-2.96875 43.962891,-9.043945c6.574219,-6.948242 -20.102539,-13.097656 -44.954102,-14.091797c15.376465,-10.907227 29.117188,-24.865234 30.196289,-33.154297c1.235352,-9.489258 -23.984375,1.203125 -44.678711,15.014648c6.029297,-17.863281 8.991211,-37.244141 4.992188,-44.584961c-4.577148,-8.401367 -18.683594,15.069336 -27.307617,38.402344c-5.621094,-17.999023 -14.672852,-35.408203 -22.224609,-38.996094c-0.704102,-0.334961 -1.328125,-0.448242 -1.88916,-0.384766z"/><path id="path8080" fill="#fd0" fill-rule="evenodd" stroke-width="1.34" d="m7026.489746,-9048.181641a30.20414,29.5 0 1 1 -60.408691,0a30.20414,29.5 0 1 1 60.408691,0z"/></g><g id="g8082" transform="matrix(0.0942985 0 0 0.0680984 -535.586 1178.94)"><path id="path8084" fill="#eeeeec" d="m6967.044922,-9121.794922c-6.330566,0.714844 -3.805176,25.524414 2.384277,47.520508c-15.124023,-11.251953 -32.639648,-20.037109 -40.855957,-18.501953c-9.406738,1.756836 8.55127,22.457031 28.081543,37.870117c-18.851563,-0.214844 -38.186523,2.96875 -43.932617,9.041016c-6.574219,6.948242 20.102539,13.097656 44.954102,14.091797c-15.375977,10.907227 -29.147461,24.868164 -30.226563,33.157227c-1.235352,9.489258 24.014648,-1.206055 44.709473,-15.017578c-6.029785,17.862305 -8.991699,37.244141 -4.991699,44.584961c4.577148,8.401367 18.682617,-15.069336 27.307617,-38.402344c5.621094,17.999023 14.637695,35.379883 22.19043,38.96875c8.641113,4.106445 6.276367,-23.162109 -0.461914,-47.108398c15.124023,11.251953 32.640625,20.037109 40.856445,18.50293c9.408203,-1.757813 -8.578125,-22.454102 -28.112305,-37.868164c18.861328,0.21875 38.214355,-2.96875 43.962891,-9.043945c6.574219,-6.948242 -20.102539,-13.097656 -44.954102,-14.091797c15.376465,-10.907227 29.117188,-24.865234 30.196289,-33.154297c1.235352,-9.489258 -23.984375,1.203125 -44.678711,15.014648c6.029297,-17.863281 8.991211,-37.244141 4.992188,-44.584961c-4.577148,-8.401367 -18.683594,15.069336 -27.307617,38.402344c-5.621094,-17.999023 -14.672852,-35.408203 -22.224609,-38.996094c-0.704102,-0.334961 -1.328125,-0.448242 -1.88916,-0.384766z"/><path id="path8086" fill="#fd0" fill-rule="evenodd" stroke-width="1.34" d="m7026.489746,-9048.181641a30.20414,29.5 0 1 1 -60.408691,0a30.20414,29.5 0 1 1 60.408691,0z"/></g><g id="g8088" transform="matrix(0.0942985 0 0 0.0680984 -560.56 1116.06)"><path id="path8090" fill="#eeeeec" d="m6967.044922,-9121.794922c-6.330566,0.714844 -3.805176,25.524414 2.384277,47.520508c-15.124023,-11.251953 -32.639648,-20.037109 -40.855957,-18.501953c-9.406738,1.756836 8.55127,22.457031 28.081543,37.870117c-18.851563,-0.214844 -38.186523,2.96875 -43.932617,9.041016c-6.574219,6.948242 20.102539,13.097656 44.954102,14.091797c-15.375977,10.907227 -29.147461,24.868164 -30.226563,33.157227c-1.235352,9.489258 24.014648,-1.206055 44.709473,-15.017578c-6.029785,17.862305 -8.991699,37.244141 -4.991699,44.584961c4.577148,8.401367 18.682617,-15.069336 27.307617,-38.402344c5.621094,17.999023 14.637695,35.379883 22.19043,38.96875c8.641113,4.106445 6.276367,-23.162109 -0.461914,-47.108398c15.124023,11.251953 32.640625,20.037109 40.856445,18.50293c9.408203,-1.757813 -8.578125,-22.454102 -28.112305,-37.868164c18.861328,0.21875 38.214355,-2.96875 43.962891,-9.043945c6.574219,-6.948242 -20.102539,-13.097656 -44.954102,-14.091797c15.376465,-10.907227 29.117188,-24.865234 30.196289,-33.154297c1.235352,-9.489258 -23.984375,1.203125 -44.678711,15.014648c6.029297,-17.863281 8.991211,-37.244141 4.992188,-44.584961c-4.577148,-8.401367 -18.683594,15.069336 -27.307617,38.402344c-5.621094,-17.999023 -14.672852,-35.408203 -22.224609,-38.996094c-0.704102,-0.334961 -1.328125,-0.448242 -1.88916,-0.384766z"/><path id="path8092" fill="#fd0" fill-rule="evenodd" stroke-width="1.34" d="m7026.489746,-9048.181641a30.20414,29.5 0 1 1 -60.408691,0a30.20414,29.5 0 1 1 60.408691,0z"/></g><g id="g8094" transform="matrix(0.0942985 0 0 0.0680984 163.668 1116.06)"><path id="path8096" fill="#eeeeec" d="m6967.044922,-9121.794922c-6.330566,0.714844 -3.805176,25.524414 2.384277,47.520508c-15.124023,-11.251953 -32.639648,-20.037109 -40.855957,-18.501953c-9.406738,1.756836 8.55127,22.457031 28.081543,37.870117c-18.851563,-0.214844 -38.186523,2.96875 -43.932617,9.041016c-6.574219,6.948242 20.102539,13.097656 44.954102,14.091797c-15.375977,10.907227 -29.147461,24.868164 -30.226563,33.157227c-1.235352,9.489258 24.014648,-1.206055 44.709473,-15.017578c-6.029785,17.862305 -8.991699,37.244141 -4.991699,44.584961c4.577148,8.401367 18.682617,-15.069336 27.307617,-38.402344c5.621094,17.999023 14.637695,35.379883 22.19043,38.96875c8.641113,4.106445 6.276367,-23.162109 -0.461914,-47.108398c15.124023,11.251953 32.640625,20.037109 40.856445,18.50293c9.408203,-1.757813 -8.578125,-22.454102 -28.112305,-37.868164c18.861328,0.21875 38.214355,-2.96875 43.962891,-9.043945c6.574219,-6.948242 -20.102539,-13.097656 -44.954102,-14.091797c15.376465,-10.907227 29.117188,-24.865234 30.196289,-33.154297c1.235352,-9.489258 -23.984375,1.203125 -44.678711,15.014648c6.029297,-17.863281 8.991211,-37.244141 4.992188,-44.584961c-4.577148,-8.401367 -18.683594,15.069336 -27.307617,38.402344c-5.621094,-17.999023 -14.672852,-35.408203 -22.224609,-38.996094c-0.704102,-0.334961 -1.328125,-0.448242 -1.88916,-0.384766z"/><path id="path8098" fill="#fd0" fill-rule="evenodd" stroke-width="1.34" d="m7026.489746,-9048.181641a30.20414,29.5 0 1 1 -60.408691,0a30.20414,29.5 0 1 1 60.408691,0z"/></g><g id="g8100" transform="matrix(0.0942985 0 0 0.0478494 238.588 1077.98)"><path id="path8102" fill="#eeeeec" d="m6967.044922,-13500.484375c-6.330566,0.714844 -3.805176,25.524414 2.384277,47.520508c-15.124023,-11.251953 -32.639648,-20.037109 -40.855957,-18.501953c-9.406738,1.756836 8.55127,22.457031 28.081543,37.870117c-18.851563,-0.214844 -38.186523,2.96875 -43.932617,9.041016c-6.574219,6.948242 20.102539,13.097656 44.954102,14.091797c-15.375977,10.907227 -29.147461,24.868164 -30.226563,33.157227c-1.235352,9.489258 24.014648,-1.206055 44.709473,-15.017578c-6.029785,17.863281 -8.991699,37.244141 -4.991699,44.584961c4.577148,8.402344 18.682617,-15.069336 27.307617,-38.402344c5.621094,17.999023 14.637695,35.379883 22.19043,38.96875c8.641113,4.106445 6.276367,-23.162109 -0.461914,-47.108398c15.124023,11.251953 32.640625,20.037109 40.856445,18.50293c9.408203,-1.757813 -8.578125,-22.454102 -28.112305,-37.868164c18.861328,0.21875 38.214355,-2.96875 43.962891,-9.043945c6.574219,-6.948242 -20.102539,-13.097656 -44.954102,-14.091797c15.376465,-10.907227 29.117188,-24.865234 30.196289,-33.154297c1.235352,-9.489258 -23.984375,1.203125 -44.678711,15.014648c6.029297,-17.863281 8.991211,-37.244141 4.992188,-44.584961c-4.577148,-8.401367 -18.683594,15.069336 -27.307617,38.402344c-5.621094,-17.999023 -14.672852,-35.407227 -22.224609,-38.99707c-0.704102,-0.333984 -1.328125,-0.447266 -1.88916,-0.383789z"/><path id="path8104" fill="#fd0" fill-rule="evenodd" stroke-width="1.34" d="m7026.489746,-13426.871094a30.20414,29.5 0 1 1 -60.408691,0a30.20414,29.5 0 1 1 60.408691,0z"/></g><g id="g3871" fill="#304e15" transform="matrix(0.158771 0.088528 -0.0969825 0.275625 -381.127 1063.25)"><path id="path3873" fill="#304e15" d="m2269.092285,-1986.447754c-6.330566,0.714111 -3.805176,25.523926 2.383789,47.520264c-15.123535,-11.251953 -32.63916,-20.037354 -40.855713,-18.502441c-9.40625,1.757202 8.551514,22.457275 28.081543,37.870605c-18.851563,-0.214355 -38.186279,2.969238 -43.931885,9.041138c-6.574463,6.94812 20.102295,13.097656 44.953857,14.091797c-15.375732,10.90686 -29.147949,24.868164 -30.227051,33.157349c-1.235352,9.489014 24.015381,-1.206665 44.709717,-15.017578c-6.029785,17.862549 -8.991211,37.244141 -4.992188,44.585205c4.577637,8.401367 18.683105,-15.069824 27.307861,-38.402832c5.621338,17.998779 14.638428,35.379639 22.190674,38.968384c8.641113,4.106445 6.276123,-23.161865 -0.461426,-47.108154c15.124023,11.252197 32.639648,20.03772 40.855957,18.502808c9.408203,-1.757935 -8.578613,-22.453613 -28.112305,-37.86792c18.861328,0.218506 38.213867,-2.96875 43.962891,-9.044189c6.574707,-6.947998 -20.102295,-13.097656 -44.953857,-14.091797c15.375732,-10.906494 29.116699,-24.86499 30.196045,-33.154053c1.235352,-9.489136 -23.984131,1.203247 -44.678467,15.014526c6.029053,-17.862671 8.991211,-37.244263 4.991455,-44.585083c-4.577393,-8.401367 -18.682861,15.069824 -27.307617,38.402588c-5.621094,-17.998779 -14.672363,-35.407715 -22.224609,-38.996582c-0.703857,-0.334351 -1.327637,-0.447632 -1.888672,-0.384033z"/><path id="path3875" fill="#304e15" fill-rule="evenodd" stroke-width="1.34" d="m2328.536865,-1912.834839a30.20414,29.5 0 1 1 -60.407959,0a30.20414,29.5 0 1 1 60.407959,0z"/></g><path id="path3877" fill="#f6fbfc" fill-rule="evenodd" stroke-width="1" d="m290.521942,162.179001a71.51828,68.911537 0 1 1 -143.036621,0a71.51828,68.911537 0 1 1 143.036621,0z"/><path id="path3879" fill="#f6fbfc" fill-rule="evenodd" stroke-width="1" d="m405.304291,191.077377a81.230659,62.242691 0 1 1 -162.461227,0a81.230659,62.242691 0 1 1 162.461227,0z"/><path id="path3881" fill="#f6fbfc" fill-rule="evenodd" stroke-width="1" d="m513.023193,151.064224a138.621872,73.35746 0 1 1 -277.243744,0a138.621872,73.35746 0 1 1 277.243744,0z"/><path id="path3883" fill="#f6fbfc" fill-rule="evenodd" stroke-width="1" d="m361.157257,91.044502a68.869461,48.90498 0 1 1 -137.738937,0a68.869461,48.90498 0 1 1 137.738937,0z"/><path id="path3885" fill="#f6fbfc" fill-rule="evenodd" stroke-width="1" d="m445.919617,106.605164a45.030041,42.236111 0 1 1 -90.060059,0a45.030041,42.236111 0 1 1 90.060059,0z"/><path id="path4659" fill="url(#linearGradient4676)" fill-rule="evenodd" stroke-width="1" d="m293.209442,75.49189c-32.712555,0 -59.233307,17.032013 -59.233307,38.070663c0,0.619583 0.021561,1.262474 0.067169,1.874855c-1.281174,-0.069458 -2.558197,-0.114746 -3.859406,-0.114746c-33.970688,0 -61.515427,24.036179 -61.515427,53.681534c0,29.645447 27.544739,53.643265 61.515427,53.643265c10.878616,0 21.102798,-2.448166 29.968964,-6.772339c12.107544,14.415894 34.630707,24.105072 60.407959,24.105072c25.137238,0 47.161652,-9.207764 59.468262,-23.033737c58.175964,-3.790649 103.029022,-27.705063 103.029022,-56.627716c0,-21.683563 -25.191559,-40.556793 -62.320862,-50.237991c-6.54129,-10.303131 -19.384064,-17.294403 -34.130432,-17.294403c-11.186096,0 -21.254761,4.041245 -28.324615,10.483795c-2.658905,0.058609 -5.309448,0.165375 -7.920166,0.306076c-6.834656,-16.182648 -29.826355,-28.084274 -57.152557,-28.084274l-0.000031,-0.000053z"/><path id="path4684" fill="#f6fbfc" fill-rule="evenodd" stroke-width="1" d="m1065.507935,32.436131c-20.812866,0 -38.944092,13.351109 -48.35791,33.078533c-1.710083,-0.242294 -3.46405,-0.362061 -5.2453,-0.362061c-17.544067,0 -32.08728,12.17907 -34.754211,28.115677c-20.500366,4.950272 -35.092712,17.654243 -35.092712,32.546082c0,17.071594 19.176575,31.250412 44.449585,34.186157c0.808472,17.765137 16.223633,31.928299 35.14325,31.928299c12.632324,0 23.706787,-6.319107 29.915039,-15.804398c10.163818,7.207535 24.533447,11.71492 40.473267,11.71492c18.999023,0 35.767456,-6.392044 45.837158,-16.145294c8.518555,4.178421 18.607422,6.603027 29.424316,6.603027c30.501221,0 55.227905,-19.225052 55.227905,-42.940414c0,-23.715271 -24.726685,-42.940346 -55.227905,-42.940346c-4.095825,0 -8.087402,0.34346 -11.928955,1.001076c-0.189697,-20.159782 -16.100464,-36.44389 -35.718628,-36.44389c-3.380371,0 -6.646362,0.502342 -9.745972,1.405739c-10.062622,-15.743347 -26.207031,-25.943108 -44.398926,-25.943108z"/><path id="path4701" fill="url(#linearGradient4709)" fill-rule="evenodd" stroke-width="1" d="m1072.117554,57.46106c-17.547485,0 -32.833618,11.256287 -40.77063,27.888412c-1.441772,-0.204292 -2.92041,-0.30526 -4.422119,-0.30526c-14.791382,0 -27.052795,10.268105 -29.301208,23.704231c-17.283875,4.173523 -29.586487,14.88427 -29.586487,27.439529c0,14.39296 16.167542,26.347153 37.475281,28.822189c0.681641,14.977722 13.678162,26.918655 29.628967,26.918655c10.650391,0 19.987305,-5.327576 25.221436,-13.32457c8.56897,6.076584 20.68396,9.876724 34.123047,9.876724c16.018066,0 30.155273,-5.389084 38.644775,-13.61203c7.182373,3.522888 15.68811,5.566986 24.807739,5.566986c25.715576,0 46.56189,-16.208633 46.56189,-36.202896c0,-19.994263 -20.846313,-36.202888 -46.56189,-36.202888c-3.453247,0 -6.818237,0.289543 -10.057129,0.844063c-0.159912,-16.99675 -13.574341,-30.72583 -30.114258,-30.72583c-2.850098,0 -5.603638,0.423531 -8.216919,1.185196c-8.483765,-13.273155 -22.095093,-21.872562 -37.432495,-21.872562l0,0.00005z"/></g></svg>