<svg xmlns="http://www.w3.org/2000/svg" xmlns:xlink="http://www.w3.org/1999/xlink" id="Capa_1" x="0" y="0" version="1.1" viewBox="0 0 512 512" xml:space="preserve" style="enable-background:new 0 0 512 512"><rect style="fill:#00ac00" width="135.69" height="30" x="188.15" y="370.01"/><rect style="fill:#008100" width="68.64" height="30" x="255.2" y="370.01"/><rect style="fill:#33bc00" width="30" height="275.67" x="241" y="236.33"/><rect style="fill:#00ac00" width="15.797" height="275.67" x="255.2" y="236.33"/><path style="fill:#79d60d" d="M48.893,385.006c0,0,40.599,53.689,90.68,53.689s90.68-53.689,90.68-53.689	s-40.599-53.689-90.68-53.689C89.492,331.317,48.893,385.006,48.893,385.006z"/><g><path style="fill:#33bc00" d="M48.893,385.006c0,0,40.599,53.689,90.68,53.689s90.68-53.689,90.68-53.689H48.893z"/><path style="fill:#33bc00" d="M463.107,385.006c0,0-40.599,53.689-90.68,53.689s-90.68-53.689-90.68-53.689 s40.599-53.689,90.68-53.689C422.508,331.317,463.107,385.006,463.107,385.006z"/></g><path style="fill:#00ac00" d="M463.107,385.006c0,0-40.599,53.689-90.68,53.689s-90.68-53.689-90.68-53.689H463.107z"/><path style="fill:#ffdb0c" d="M256,0L256,0c-26.723,0-45.318,26.557-36.179,51.668l6.204,17.047h59.948l6.205-17.047	C301.318,26.557,282.723,0,256,0z"/><path style="fill:#fbbf00" d="M256,0L256,0c0,20.768,0,68.715,0,68.715h29.974l6.205-17.047C301.318,26.557,282.723,0,256,0z"/><g><path style="fill:#ffdb0c" d="M219.821,51.668c-9.14-25.111-40.455-33.502-60.926-16.325l0,0 c-20.471,17.177-17.645,49.474,5.497,62.836l15.71,9.07l45.923-38.534L219.821,51.668z"/><path style="fill:#ffdb0c" d="M164.392,98.179c-23.143-13.361-52.525,0.34-57.166,26.657l0,0 c-4.64,26.317,18.284,49.241,44.601,44.601l17.865-3.15l10.41-59.038L164.392,98.179z"/><path style="fill:#ffdb0c" d="M169.693,166.287l-17.865,3.15c-26.317,4.64-40.018,34.023-26.657,57.166l0,0 c13.361,23.143,45.658,25.968,62.836,5.497l11.661-13.896L169.693,166.287z"/><path style="fill:#ffdb0c" d="M199.667,218.204L188.006,232.1c-17.177,20.471-8.786,51.787,16.325,60.926l0,0 c25.111,9.14,51.668-9.456,51.668-36.179v-18.141L199.667,218.204z"/></g><g><path style="fill:#ffa900" d="M323.994,232.1l-11.661-13.896L256,238.707v18.141c0,26.723,26.557,45.318,51.668,36.179l0,0 C332.78,283.887,341.171,252.571,323.994,232.1z"/><path style="fill:#ffa900" d="M360.172,169.437l-17.865-3.15l-29.974,51.917l11.661,13.896 c17.177,20.471,49.474,17.646,62.835-5.497l0,0C400.19,203.46,386.489,174.077,360.172,169.437z"/><path style="fill:#ffa900" d="M404.773,124.836L404.773,124.836c-4.64-26.317-34.023-40.019-57.166-26.657l-15.71,9.07 l10.41,59.038l17.865,3.15C386.489,174.077,409.414,151.153,404.773,124.836z"/><path style="fill:#ffa900" d="M353.105,35.343L353.105,35.343c-20.471-17.177-51.787-8.786-60.926,16.325l-6.205,17.047 l45.923,38.534l15.71-9.07C370.75,84.817,373.576,52.521,353.105,35.343z"/></g><circle style="fill:#984d00" cx="256" cy="151.07" r="87.62"/><path style="fill:#723802" d="M343.617,151.069c0,48.389-39.227,87.617-87.617,87.617c0-68.647,0-145.696,0-175.233	C304.389,63.452,343.617,102.679,343.617,151.069z"/></svg>