<svg xmlns="http://www.w3.org/2000/svg" xmlns:xlink="http://www.w3.org/1999/xlink" id="Layer_1" x="0" y="0" version="1.1" viewBox="0 0 330 330" xml:space="preserve" style="enable-background:new 0 0 330 330"><g id="XMLID_967_"><path id="XMLID_968_" d="M225,150v2.924C209.077,138.671,188.053,130,165,130s-44.077,8.671-60,22.924V150 c-23.25,23.249-81.374,69.749-69.749,116.248c7.589,30.359,34.999,30.983,53.113,21.29C96.368,311.675,105,330,105,330 s56.62,0,60,0c7.318,0,60,0,60,0s8.32-18.754,16.197-42.698c18.107,9.938,45.9,9.551,53.552-21.054 C306.373,219.749,248.25,173.249,225,150z" style="fill:#804c09"/><circle id="XMLID_969_" cx="90" cy="35" r="35" style="fill:#402604"/><circle id="XMLID_970_" cx="90" cy="35" r="15" style="fill:#ff9811"/><circle id="XMLID_971_" cx="240" cy="35" r="35" style="fill:#804c09"/><circle id="XMLID_972_" cx="240" cy="35" r="15" style="fill:#ff9811"/><path id="XMLID_973_" d="M105,152.924V150c-23.25,23.249-81.374,69.749-69.749,116.248 c7.589,30.359,34.999,30.983,53.113,21.29C96.368,311.675,105,330,105,330s56.62,0,60,0c0,0,0-116,0-200 C141.947,130,120.923,138.671,105,152.924z" style="fill:#402604"/><ellipse id="XMLID_974_" cx="165" cy="100" rx="95" ry="90" style="fill:#be720d"/><path id="XMLID_975_" d="M165,190c-52.468,0-95-40.294-95-90s42.532-90,95-90" style="fill:#804c09"/><circle id="XMLID_976_" cx="125" cy="100" r="7.5" style="fill:#003638"/><circle id="XMLID_977_" cx="205" cy="100" r="7.5" style="fill:#003638"/><ellipse id="XMLID_978_" cx="105" cy="285" rx="40" ry="45" style="fill:#804c09"/><circle id="XMLID_979_" cx="104.375" cy="297.5" r="17.5" style="fill:#ff9811"/><ellipse id="XMLID_980_" cx="225" cy="285" rx="40" ry="45" style="fill:#be720d"/><circle id="XMLID_981_" cx="225.625" cy="297.5" r="17.5" style="fill:#ff9811"/><ellipse id="XMLID_982_" cx="165" cy="150" rx="60" ry="40" style="fill:#ffc170"/><path id="XMLID_983_" d="M165,190c-33.137,0-60-17.908-60-40s26.863-40,60-40" style="fill:#ff9811"/><path id="XMLID_984_" d="M185,140c0,8.836-8.954,20-20,20s-20-11.164-20-20s8.954-10,20-10 S185,131.164,185,140z" style="fill:#003638"/></g></svg>