<svg xmlns="http://www.w3.org/2000/svg" xmlns:xlink="http://www.w3.org/1999/xlink" id="Capa_1" x="0" y="0" version="1.1" viewBox="0 0 58 58" xml:space="preserve" style="enable-background:new 0 0 58 58"><polygon style="fill:#edeada" points="51.5 14 37.5 0 6.5 0 6.5 58 51.5 58"/><polygon style="fill:#cec9ae" points="37.5 0 37.5 14 51.5 14"/><path style="fill:#cec9ae" d="M41.5,22h-16c-0.552,0-1-0.447-1-1s0.448-1,1-1h16c0.552,0,1,0.447,1,1S42.052,22,41.5,22z"/><path style="fill:#14a085" d="M17.5,23c-0.257,0-0.514-0.099-0.708-0.293l-2-2c-0.391-0.391-0.391-1.023,0-1.414	s1.023-0.391,1.414,0l1.367,1.367l4.301-3.441c0.43-0.345,1.061-0.275,1.405,0.156c0.345,0.432,0.275,1.061-0.156,1.406l-5,4	C17.941,22.928,17.72,23,17.5,23z"/><path style="fill:#cec9ae" d="M41.5,33h-16c-0.552,0-1-0.447-1-1s0.448-1,1-1h16c0.552,0,1,0.447,1,1S42.052,33,41.5,33z"/><path style="fill:#14a085" d="M17.5,34c-0.257,0-0.514-0.099-0.708-0.293l-2-2c-0.391-0.391-0.391-1.023,0-1.414	s1.023-0.391,1.414,0l1.367,1.367l4.301-3.441c0.43-0.345,1.061-0.275,1.405,0.156c0.345,0.432,0.275,1.061-0.156,1.406l-5,4	C17.941,33.928,17.72,34,17.5,34z"/><path style="fill:#cec9ae" d="M41.5,44h-16c-0.552,0-1-0.447-1-1s0.448-1,1-1h16c0.552,0,1,0.447,1,1S42.052,44,41.5,44z"/><path style="fill:#14a085" d="M17.5,45c-0.257,0-0.514-0.099-0.708-0.293l-2-2c-0.391-0.391-0.391-1.023,0-1.414	s1.023-0.391,1.414,0l1.367,1.367l4.301-3.441c0.43-0.345,1.061-0.275,1.405,0.156c0.345,0.432,0.275,1.061-0.156,1.406l-5,4	C17.941,44.928,17.72,45,17.5,45z"/></svg>