<svg xmlns="http://www.w3.org/2000/svg" xmlns:xlink="http://www.w3.org/1999/xlink" id="Capa_1" x="0" y="0" version="1.1" viewBox="0 0 58 58" xml:space="preserve" style="enable-background:new 0 0 58 58"><g><path style="fill:#ed7161" d="M39.869,58H18.131C16.954,58,16,57.046,16,55.869V12.621C16,11.726,16.726,11,17.621,11h22.757 C41.274,11,42,11.726,42,12.621v43.248C42,57.046,41.046,58,39.869,58z"/><polygon style="fill:#d13834" points="35 11 23 11 27.615 0 30.385 0"/><rect style="fill:#d75a4a" width="26" height="2" x="16" y="16"/><rect style="fill:#d75a4a" width="2" height="6" x="20" y="11"/><rect style="fill:#d75a4a" width="2" height="6" x="25" y="11"/><rect style="fill:#d75a4a" width="2" height="6" x="30" y="11"/><rect style="fill:#d75a4a" width="2" height="6" x="36" y="11"/><circle style="fill:#d13834" cx="29" cy="36" r="10"/></g></svg>