<svg xmlns="http://www.w3.org/2000/svg" xmlns:xlink="http://www.w3.org/1999/xlink" id="Capa_1" x="0" y="0" version="1.1" viewBox="0 0 512 512" xml:space="preserve" style="enable-background:new 0 0 512 512"><path style="fill:#7fab0d" d="M256,0l-60,256l60,256c141.385,0,256-114.615,256-256S397.385,0,256,0z"/><path style="fill:#fff" d="M256,30l-60,226l60,226c124.816,0,226-101.184,226-226S380.816,30,256,30z"/><path style="fill:#d35b38" d="M256,60l-60,196l60,196c108.075,0,196-87.925,196-196S364.075,60,256,60z"/><g><rect style="fill:#4d3d36" width="30" height="30" x="362" y="241"/><rect style="fill:#4d3d36" width="30" height="30" x="326.554" y="326.56" transform="matrix(-0.7071 0.7071 -0.7071 -0.7071 824.5887 341.5641)"/><rect style="fill:#4d3d36" width="30" height="30" x="326.561" y="155.445" transform="matrix(0.7071 0.7071 -0.7071 0.7071 220.5636 -191.598)"/></g><path style="fill:#b8d75d" d="M0,256c0,141.385,114.615,256,256,256l-30-256L256,0C114.615,0,0,114.615,0,256z"/><path style="fill:#9bc135" d="M174.113,69.227c-17.77,24.667-51.777,49.6-61.084,85.891c-7.765,30.281,9.261,65.708,9.261,100.882	c0,35.175-17.027,70.603-9.261,100.884c9.307,36.291,43.314,61.221,61.083,85.888C198.967,477.275,221.473,512,256,512V0	C221.474,0,198.968,34.725,174.113,69.227z"/></svg>